<svg width="480" height="134" viewBox="0 0 480 134" fill="none" xmlns="http://www.w3.org/2000/svg">
<path d="M0.00244141 130.87V-0.00402832H34.4123V130.87H0.00244141ZM47.359 130.87V33.633H80.4157V39.239C82.3489 38.079 84.6686 36.919 87.375 35.759C90.0814 34.471 92.917 33.44 95.881 32.666C98.974 31.764 101.874 31.313 104.58 31.313C113.73 31.313 120.883 32.924 126.038 36.146C131.322 39.239 135.059 44.459 137.25 51.804C139.441 59.15 140.536 68.945 140.536 81.188V130.87H107.093V83.121C107.093 77.58 106.771 73.133 106.127 69.783C105.482 66.432 104.322 63.983 102.647 62.437C100.971 60.89 98.587 60.117 95.494 60.117C93.69 60.117 91.821 60.31 89.8881 60.697C88.0839 60.955 86.344 61.341 84.6686 61.857C82.9933 62.372 81.5756 62.888 80.4157 63.403V130.87H47.359ZM189.65 133.19C184.366 133.19 179.082 132.932 173.798 132.417C168.643 131.901 163.874 131.321 159.492 130.677C155.24 129.903 151.76 129.195 149.054 128.55L150.02 105.159C153.371 105.546 157.173 105.997 161.426 106.512C165.807 107.028 170.06 107.479 174.184 107.866C178.437 108.123 181.917 108.252 184.623 108.252C187.587 108.252 189.972 108.059 191.776 107.672C193.709 107.286 195.127 106.577 196.029 105.546C196.931 104.515 197.382 103.162 197.382 101.486C197.382 100.069 196.867 98.973 195.836 98.2C194.933 97.427 193.194 96.718 190.616 96.073C188.039 95.429 184.237 94.785 179.211 94.14C171.993 93.109 166.065 91.563 161.426 89.501C156.915 87.31 153.564 84.217 151.373 80.222C149.311 76.226 148.28 70.943 148.28 64.37C148.28 55.735 150.085 49.034 153.693 44.265C157.302 39.497 162.134 36.146 168.192 34.213C174.378 32.28 181.208 31.313 188.683 31.313C193.838 31.313 198.929 31.571 203.955 32.086C209.11 32.473 213.814 33.053 218.067 33.826C222.448 34.471 225.993 35.115 228.699 35.759L227.732 59.924C224.382 59.537 220.515 59.15 216.134 58.764C211.752 58.248 207.499 57.862 203.375 57.604C199.251 57.346 195.771 57.217 192.936 57.217C190.616 57.217 188.554 57.411 186.75 57.797C185.074 58.184 183.786 58.828 182.884 59.73C181.981 60.504 181.53 61.663 181.53 63.21C181.53 64.37 181.917 65.336 182.69 66.11C183.592 66.883 185.268 67.592 187.716 68.236C190.165 68.752 193.774 69.332 198.542 69.976C206.403 71.007 212.718 72.618 217.487 74.809C222.255 77 225.67 80.157 227.732 84.281C229.794 88.276 230.825 93.689 230.825 100.52C230.825 112.505 227.281 120.947 220.193 125.844C213.105 130.741 202.924 133.19 189.65 133.19ZM281.87 133.19C270.529 133.19 261.508 131.45 254.806 127.97C248.105 124.362 243.272 118.885 240.308 111.539C237.472 104.193 236.055 94.914 236.055 83.701C236.055 71.974 237.73 62.243 241.081 54.511C244.56 46.778 249.78 40.979 256.739 37.113C263.699 33.246 272.527 31.313 283.223 31.313C298.56 31.313 310.094 34.922 317.827 42.139C325.688 49.356 329.619 60.761 329.619 76.355L328.072 92.594H269.498C269.627 97.749 270.787 101.615 272.978 104.193C275.169 106.641 278.97 107.866 284.383 107.866C288.507 107.866 293.082 107.801 298.109 107.672C303.264 107.415 308.354 107.157 313.38 106.899C318.535 106.641 322.853 106.384 326.332 106.126L327.106 128.357C323.755 129.001 319.502 129.71 314.347 130.483C309.192 131.257 303.779 131.901 298.109 132.417C292.438 132.932 287.025 133.19 281.87 133.19ZM269.305 73.069H296.369C296.369 66.496 295.338 61.921 293.276 59.344C291.214 56.637 287.863 55.284 283.223 55.284C278.455 55.284 274.975 56.702 272.784 59.537C270.593 62.243 269.434 66.754 269.305 73.069ZM380.028 133.19C368.3 133.19 359.085 131.514 352.384 128.164C345.811 124.684 341.171 119.142 338.465 111.539C335.887 103.935 334.599 93.947 334.599 81.575C334.599 68.945 336.145 59.022 339.238 51.804C342.331 44.459 347.164 39.239 353.737 36.146C360.438 32.924 369.202 31.313 380.028 31.313C383.121 31.313 386.6 31.571 390.467 32.086C394.462 32.473 398.392 32.989 402.259 33.633C406.125 34.277 409.411 34.922 412.118 35.566L410.958 62.05C408.38 61.792 405.416 61.535 402.065 61.277C398.843 61.019 395.686 60.826 392.593 60.697C389.5 60.439 387.051 60.31 385.247 60.31C380.994 60.31 377.579 61.019 375.001 62.437C372.553 63.854 370.813 66.11 369.782 69.203C368.751 72.296 368.235 76.42 368.235 81.575C368.235 87.117 368.686 91.563 369.589 94.914C370.62 98.135 372.359 100.455 374.808 101.873C377.257 103.29 380.736 103.999 385.247 103.999C387.051 103.999 389.5 103.935 392.593 103.806C395.686 103.548 398.908 103.29 402.259 103.033C405.738 102.775 408.767 102.582 411.344 102.453L412.311 128.744C409.734 129.388 406.576 130.032 402.839 130.677C399.101 131.321 395.171 131.901 391.046 132.417C387.051 132.932 383.378 133.19 380.028 133.19ZM455.939 133.19C448.593 133.19 442.6 132.223 437.961 130.29C433.321 128.228 429.97 124.684 427.908 119.658C425.846 114.503 424.815 107.35 424.815 98.2V60.697H415.149V33.633H424.815V10.629H458.065V33.633H478.943V60.697H458.065V90.081C458.065 93.818 458.259 96.782 458.645 98.973C459.032 101.035 459.87 102.517 461.158 103.419C462.447 104.193 464.38 104.579 466.958 104.579C467.602 104.579 468.698 104.579 470.244 104.579C471.791 104.45 473.402 104.386 475.077 104.386C476.752 104.257 477.977 104.128 478.75 103.999L479.33 130.29C475.979 130.934 471.984 131.579 467.344 132.223C462.834 132.868 459.032 133.19 455.939 133.19Z" fill="#029288"/>
<path d="M331.891 34.498L302.284 8.85803H361.498L331.891 34.498Z" fill="#029288"/>
</svg>
